<?xml version="1.0" encoding="UTF-8" standalone="no"?>
<svg width="64" height="64" viewBox="0 0 64 64" xmlns="http://www.w3.org/2000/svg">
  <!-- HaritSetu Favicon -->
  
  <!-- Background -->
  <rect width="64" height="64" fill="#ffffff" rx="12" ry="12" />
  
  <!-- Bridge arches -->
  <path d="M8,40 C8,30 20,30 32,40 C44,30 56,30 56,40" stroke="#2F855A" stroke-width="4" fill="none" stroke-linecap="round" />
  
  <!-- Bridge deck -->
  <rect x="8" y="40" width="48" height="3" fill="#2F855A" rx="1" />
  
  <!-- Leaf stem -->
  <path d="M32,40 C32,35 32,30 32,25" stroke="#2F855A" stroke-width="2" fill="none" />
  
  <!-- Leaf -->
  <path d="M32,25 C35,22 40,20 43,25 C46,30 40,33 32,30 C24,33 18,30 21,25 C24,20 29,22 32,25 Z" fill="#4CAF50" />
  <path d="M32,25 C35,28 38,30 32,30 C26,30 29,28 32,25 Z" fill="#2F855A" />
  
  <!-- Leaf vein -->
  <path d="M32,25 C32,27 32,28 32,30" stroke="#2F855A" stroke-width="1" fill="none" />
  
  <!-- HS Text -->
  <text x="32" y="55" font-family="Arial, sans-serif" font-size="14" font-weight="bold" text-anchor="middle" fill="#1B5E20">HS</text>
</svg>